<svg width="18" height="18" viewBox="0 0 18 18" fill="none" xmlns="http://www.w3.org/2000/svg">
<path fill-rule="evenodd" clip-rule="evenodd" d="M3 1.5H15C15.8284 1.5 16.5 2.17157 16.5 3V15C16.5 15.8284 15.8284 16.5 15 16.5H3C2.17157 16.5 1.5 15.8284 1.5 15V3C1.5 2.17157 2.17157 1.5 3 1.5ZM3 3V15H15V3H3ZM6.75 9.0033H8.15021V13.5H9.65021V9.0033H11.137V7.5033H9.65021V6.75C9.65021 6.33579 9.98599 6 10.4002 6H11.1502V4.5H10.4002C9.15757 4.5 8.15021 5.50736 8.15021 6.75V7.5033H6.75V9.0033Z" fill="white"/>
</svg>
