<svg width="16" height="16" viewBox="0 0 16 16" fill="none" xmlns="http://www.w3.org/2000/svg">
<path fill-rule="evenodd" clip-rule="evenodd" d="M2 0.5H14C14.8284 0.5 15.5 1.17157 15.5 2V14C15.5 14.8284 14.8284 15.5 14 15.5H2C1.17157 15.5 0.5 14.8284 0.5 14V2C0.5 1.17157 1.17157 0.5 2 0.5ZM2 2V14H14V2H2ZM8.75 5.75C8.36169 5.75 7.95144 5.86869 7.58911 6.08911L7.25 5.75H6.5V11H8V8C8 7.56819 8.44547 7.25 8.75 7.25H9.5C9.80453 7.25 10.25 7.56819 10.25 8V11H11.75V8C11.75 6.61038 10.5455 5.75 9.5 5.75H8.75ZM5 5C5.41421 5 5.75 4.66421 5.75 4.25C5.75 3.83579 5.41421 3.5 5 3.5C4.58579 3.5 4.25 3.83579 4.25 4.25C4.25 4.66421 4.58579 5 5 5ZM4.25 5.75V11H5.75V5.75H4.25Z" fill="white"/>
</svg>
