<svg xmlns="http://www.w3.org/2000/svg" viewBox="0 0 145 78" width="145" height="78">
	<defs>
		<clipPath clipPathUnits="userSpaceOnUse" id="cp1">
			<path d="M-1009 -150L357 -150L357 618L-1009 618Z" />
		</clipPath>
	</defs>
	<style>
		tspan { white-space:pre }
		.shp0 { fill: #e50019 } 
		.shp1 { fill: #2c983c } 
		.shp2 { fill: #ffd400 } 
	</style>
	<g id="Web 1366 – 1" clip-path="url(#cp1)">
		<g id="Group 29">
			<g id="Group 28">
				<g id="Group 15">
					<g id="Group 12">
						<g id="Group 9">
							<path id="Path 471" class="shp0" d="M52.49 30.56C52.49 42.27 42.85 51.75 30.96 51.75C19.07 51.75 9.43 42.27 9.43 30.56C9.43 18.86 19.07 9.38 30.96 9.38C42.85 9.38 52.49 18.86 52.49 30.56L52.49 30.56Z" />
							<path id="Path 472" fill-rule="evenodd" class="shp1" d="M63.02 30.83L63.02 30.83C63.02 39.35 59.49 47.05 53.79 52.63C48.09 58.21 40.21 61.65 31.51 61.66L31.51 61.66L31.51 61.66L31.51 61.66C22.81 61.66 14.93 58.21 9.23 52.63C3.53 47.05 0 39.35 0 30.83L0 30.83L0 30.83L0 30.83C0 22.31 3.53 14.6 9.23 9.03C14.93 3.45 22.81 0 31.51 0L31.51 0L31.51 0L31.51 0C40.21 0 48.09 3.45 53.79 9.03C59.49 14.6 63.02 22.31 63.02 30.83L63.02 30.83L63.02 30.83ZM62.2 30.83L62.2 30.83L62.2 30.83C62.2 22.54 58.77 15.04 53.22 9.61C47.66 4.18 39.99 0.82 31.51 0.82L31.51 0.82L31.51 0.82L31.51 0.82C23.03 0.82 15.36 4.18 9.81 9.61C4.25 15.04 0.82 22.54 0.82 30.83L0.82 30.83L0.82 30.83L0.82 30.83C0.82 39.11 4.25 46.61 9.81 52.04C15.36 57.48 23.03 60.84 31.51 60.84L31.51 60.84L31.51 60.84L31.51 60.84C39.99 60.84 47.66 57.48 53.21 52.05C58.77 46.61 62.2 39.11 62.2 30.83L62.2 30.83Z" />
							<path id="Path 473" class="shp0" d="M8.31 42.45L6.72 41.48L5.14 42.35L5.58 40.74L4.18 39.51L5.98 39.49L6.48 37.69L7.31 39.6L8.93 39.72L7.77 40.67L8.31 42.45L8.31 42.45Z" />
							<path id="Path 474" class="shp0" d="M13.19 48.58L11.66 48.3L10.69 50.11L10.12 48.18L8.42 48.01L10.05 47.03L9.77 45.18L11.31 46.59L12.79 45.57L12.11 47.1L13.19 48.58L13.19 48.58Z" />
							<path id="Path 475" class="shp0" d="M57.1 41.59L55.75 40.13L53.52 41.08L54.55 39.21L53.07 37.62L55.27 37.79L56.25 36.03L56.53 37.96L58.81 38.36L56.93 39.49L57.1 41.59L57.1 41.59Z" />
							<path id="Path 476" class="shp0" d="M52.77 49.23L51.28 47.61L49.32 48.08L50.49 46.51L49.4 44.89L51.37 45.45L52.56 43.82L52.9 45.95L54.77 46.08L52.6 47.15L52.77 49.23L52.77 49.23Z" />
							<g id="Group 6">
								<path id="Path 477" class="shp1" d="M26.35 57.49L25.53 56.99C25.38 56.9 25.18 56.94 25.09 57.1C25 57.25 25.05 57.44 25.2 57.54L26.03 58.03C26.18 58.13 26.38 58.08 26.47 57.93C26.56 57.78 26.51 57.58 26.35 57.49Z" />
								<path id="Path 478" fill-rule="evenodd" class="shp1" d="M46.89 53.79C46.89 53.79 44.33 52.9 41.99 55.07C41.99 55.07 40.63 54.56 42.12 53.54L44.42 51.75C44.42 51.75 44.38 50.98 43.01 52.13L40.07 53.45C40.07 53.45 39.56 53.37 39.99 54.86L40.63 56.77C40.63 56.77 39.73 57.29 39.52 56.18L38.8 54C38.8 54 38.33 53.66 37.82 54.05L35.94 54.52C35.94 54.52 39.22 54.9 38.07 56.35C38.07 56.35 36.92 57.24 36.62 56.6C36.62 56.6 36.62 56.05 37.18 56.05C37.18 56.05 37.99 55.33 36.62 55.54L35.81 55.58C35.81 55.58 35.91 57.56 36.03 57.67C36.03 57.67 35.37 58.26 35.12 57.78C35.12 57.78 34.12 56.48 31.45 57.1C31.45 57.1 30.37 57.24 30.63 56.33C30.63 56.33 30.35 56.05 31.71 55.77L34.04 55.17C34.04 55.17 34.69 54.52 33.67 54.8C33.67 54.8 30.53 54.98 29.81 54.69C29.81 54.69 28.95 54.56 29 55.92C29 55.92 28.7 57.41 28.57 57.84C28.57 57.84 27.89 57.88 27.55 57.29C27.55 57.29 25.8 55.84 24.14 55.96C24.14 55.96 23.2 55.67 24.01 54.94C24.01 54.94 27.89 54.98 27.93 54.86C27.93 54.86 28.39 54.43 27.08 54.4C27.08 54.4 24.75 53.92 23.9 53.58C23.9 53.58 22.93 52.98 22.73 54.12C22.73 54.12 21.8 56.28 21.71 56.39C21.71 56.39 20.73 56.26 21.29 55.33C21.29 55.33 21.58 53.2 19.96 53.83C19.96 53.83 17.71 54.22 17.62 54.05C17.62 54.05 16.43 53.49 17.03 52.22C17.03 52.22 17.31 52.1 17.25 52.47C17.25 52.47 17.58 53.58 18.77 52.73C18.77 52.73 19.03 51.53 18.43 51.41C18.43 51.41 16.6 50.34 17.62 49.74C17.62 49.74 23.42 53.45 26.1 53.41C26.1 53.41 36.11 56.26 45.57 49.79C45.57 49.79 46.17 50.17 45.44 50.81C45.44 50.81 47.19 53.45 46.89 53.79ZM22.1 53.11C22.1 53.11 20.18 51.45 19.5 51.96C19.5 51.96 19.24 52.09 19.41 52.73C19.41 52.73 21.24 52.64 21.2 53.37C21.2 53.37 21.54 53.88 21.88 53.79L22.1 53.11ZM27.63 55.71C26.44 55.33 26.7 55.96 26.7 55.96C27.34 56.73 28.02 56.73 28.02 56.73C28.57 55.84 27.63 55.71 27.63 55.71ZM34.32 55.88C34.32 55.88 33.17 56.52 34.32 56.6L34.71 56.77C34.71 56.77 35 55.71 34.32 55.88ZM45.44 52.47C44.93 52.34 44.72 52.68 44.72 52.68C44.04 53.41 44.97 53.24 44.97 53.24C45.87 53.2 45.44 52.47 45.44 52.47Z" />
							</g>
							<path id="Path 479" class="shp1" d="M45.4 54.94C45.4 54.94 46 54.09 44.33 54.6C44.33 54.6 43.14 55.54 44.59 55.45C44.59 55.45 45.1 54.98 45.4 54.94L45.4 54.94Z" />
							<g id="Group 7">
								<path id="Path 480" class="shp1" d="M5.86 23.87C5.12 23.81 5.18 23.19 5.18 23.19C4.78 22.96 4.56 24.15 4.56 24.15C5.18 24.32 4.73 24.89 4.73 24.89C3.93 25.46 3.82 27.51 3.82 27.51C4.22 29.95 5.35 29.27 5.35 29.27C6.03 29.15 5.47 27.56 5.47 27.56C5.75 24.95 6.26 27.79 6.26 27.79C6.43 28.93 7.23 27.96 7.23 27.96C7.11 26.88 6.37 25.75 6.37 25.75C5.86 24.84 5.07 26.26 5.07 26.26C5.24 27.85 4.67 27.28 4.67 27.28C4.05 25.63 5.35 24.84 5.35 24.84C5.98 24.38 7.57 24.95 7.57 24.95C8.48 25.06 8.02 24.38 8.02 24.38L5.86 23.87Z" />
								<path id="Path 481" class="shp1" d="M8.48 18.25C7.45 18.19 7.57 17.22 7.57 17.22C7.11 16.88 6.72 18.25 6.72 18.25C7.51 18.53 6.77 18.99 6.77 18.99C5.86 19.27 5.52 20.46 5.52 20.46C5.01 23.42 7.34 23.07 7.34 23.07C8.76 22.11 8.08 20.69 8.08 20.69C7.85 19.95 7.23 20.86 7.23 20.86C7.68 22.34 6.83 22.45 6.83 22.45C5.47 21.31 7 19.44 7 19.44C7.74 18.36 9.56 19.67 9.56 19.67C10.24 20.01 10.18 19.16 10.18 19.16L8.48 18.25Z" />
								<path id="Path 482" fill-rule="evenodd" class="shp1" d="M35.3 3.09L35.26 3.69C35.26 3.69 34.32 3.52 34.66 4.46C34.66 4.46 34.58 6.46 34.36 6.8C34.36 6.8 33.56 7.06 33.77 5.74C33.77 5.74 34.36 3.05 33.26 3.52C33.26 3.52 32.19 3.05 32.15 4.37C32.15 4.37 33.17 5.27 32.87 5.74L32.66 7.14C32.66 7.14 32.41 7.27 31.98 6.93C31.98 6.93 31.72 6.25 30.45 7.14C30.45 7.14 29.25 7.52 28.57 6.5C28.57 6.5 28.27 5.35 29.38 6.54C29.38 6.54 31.68 6.03 32.06 6.37C32.06 6.37 32.7 4.88 31.77 4.97C31.77 4.97 31 4.88 30.96 5.44C30.96 5.44 29.38 5.95 29.93 5.18C29.93 5.18 31.13 4.29 29.55 4.63C29.55 4.63 29.17 4.54 28.74 5.14C28.74 5.14 27.17 4.93 28.66 4.2C28.66 4.2 30.19 3.73 30.74 4.46C30.74 4.46 31.72 4.84 31.3 3.48C31.3 3.48 27.76 3.39 26.23 3.95C26.23 3.95 24.61 4.2 26.19 4.5C26.19 4.5 28.14 5.35 26.19 7.1C26.19 7.1 24.91 7.7 23.97 7.44C23.97 7.44 22.01 6.54 21.75 6.08C21.75 6.08 21.84 5.61 22.39 6.12C22.39 6.12 23.8 7.57 25.67 6.33C25.67 6.33 27.34 4.88 25.55 5.05C25.55 5.05 24.61 5.35 24.35 5.86C24.35 5.86 23.59 6.03 23.59 5.22C23.59 5.22 24.78 4.29 23.84 4.54C23.84 4.54 21.67 4.97 21.37 5.39C21.37 5.39 20.18 5.1 21.33 7.01L21.97 8.42L21.54 8.85C21.54 8.85 20.86 8.08 20.56 7.44C20.56 7.44 20.09 5.44 19.11 6.33C19.11 6.33 17.45 7.23 17.24 7.52C17.24 7.52 16.47 7.99 17.88 7.87L18.81 7.1L19.58 7.48C19.58 7.48 19.03 9.4 19.37 9.83C19.37 9.83 19.11 10.29 18.69 9.53C18.69 9.53 18.6 8.5 18.39 8.42C18.39 8.42 18.73 7.78 17.62 8.42C17.62 8.42 16.26 8.55 16.17 8.16C16.17 8.16 14.43 9.66 15.41 10.46C15.41 10.46 16.43 9.27 16.3 9.06C16.3 9.06 17.66 8.8 18.09 9.53C18.09 9.53 17.71 11.4 16.68 11.57C16.68 11.57 15.45 12.68 13.53 11.57L13.57 11.23C13.57 11.23 15.45 12 16.13 11.19C16.13 11.19 17.41 10.59 17.15 9.48C17.15 9.48 16.6 9.27 16.73 9.83C16.73 9.83 16.3 10.76 15.83 10.81C15.83 10.81 14.43 11.02 14.3 10.08C14.3 10.08 14.21 9.1 13.53 10.08C13.53 10.08 13.02 10.72 12.47 11.02C12.47 11.02 11.53 11.27 13.15 12.42C13.15 12.42 14.72 13.87 14.21 13.96C14.21 13.96 14.13 14.38 13.45 14.3C13.45 14.3 12.64 14.65 12.85 15.69C12.85 15.69 12.57 17.68 10.29 17.34C10.29 17.34 10.07 17 11.2 17.05C11.2 17.05 12.17 16.37 12 15.52C12 15.52 12.23 14.04 13.08 14.1C13.08 14.1 13.47 13.36 12.45 12.91C12.45 12.91 11.74 12.08 11.66 14.13C11.66 14.13 11.44 15.62 11.23 15.53C11.23 15.53 10.63 16.09 10.42 15.49C10.42 15.49 10.21 14.68 9.74 15.62C9.74 15.62 8.59 16.43 8.97 15.11C8.97 15.11 9.06 13.11 10.46 12.72C10.46 12.72 11.4 12.59 11.57 12.25L11.19 11.61C11.19 11.61 14.9 7.82 16.56 7.14C16.56 7.14 22.18 3.82 27.85 3.14C27.85 3.14 32.58 2.71 33.43 3.01C33.43 3.01 34.45 2.41 32.83 1.99C32.83 1.99 31.17 1.99 29.98 2.37C29.98 2.37 29 1.6 30.91 1.43C30.91 1.43 32.96 0.71 34.62 2.75C34.62 2.75 35 3.35 35.3 3.09ZM11.02 13.11C10.12 12.94 10.04 13.7 10.04 13.7C9.4 14.98 10.46 14.64 10.46 14.64C11.36 14.26 11.02 13.11 11.02 13.11Z" />
								<path id="Path 483" fill-rule="evenodd" class="shp1" d="M42.93 6.72C42.8 7.31 41.99 8.8 41.99 8.8C41.52 9.1 41.35 8.33 41.35 8.33L42.16 7.01C43.1 5.35 41.74 5.44 41.74 5.44C41.48 5.61 40.8 7.31 40.8 7.31C40.46 8.8 39.82 7.82 39.82 7.82C39.48 6.33 37.35 6.29 37.35 6.29C35.98 5.99 36.92 5.18 36.92 5.18L40.5 5.18C39.99 4.59 37.86 4.24 37.86 4.24C36.15 3.78 37.26 3.44 37.26 3.44C38.67 3.65 42.25 4.93 42.25 4.93C44.29 5.78 43.78 6.12 43.78 6.12C43.23 6.2 42.93 6.72 42.93 6.72ZM40.16 6.08L39.26 6.08C39.26 6.08 38.62 6.25 39.86 6.93C39.86 6.93 40.33 6.42 40.16 6.08Z" />
								<path id="Path 484" class="shp1" d="M43.01 9.1C43.27 9.02 45.1 11.02 45.1 11.02C45.31 10.63 43.99 8.93 43.99 8.93C43.4 8.12 43.01 9.1 43.01 9.1Z" />
								<path id="Path 485" fill-rule="evenodd" class="shp1" d="M44.08 8.29C44.08 8.29 43.23 7.14 44.76 6.5C44.76 6.5 47.23 6.42 46.89 7.95C46.89 7.95 46.25 9.66 44.08 8.29ZM45.61 7.18C44.89 6.93 44.33 7.57 44.33 7.57C44.46 8.46 45.87 7.91 45.87 7.91C46.93 7.48 45.61 7.18 45.61 7.18Z" />
								<path id="Path 486" class="shp1" d="M59.2 27.59C58.9 27.76 58.35 27.21 58.35 27.21C58.73 27.16 58.9 26.74 58.9 26.74C59.16 26.19 58.82 25.42 58.82 25.42C58.44 25.46 58.05 24.69 58.05 24.69C58.44 23.8 58.44 23.42 58.44 23.42C58.44 21.67 56.13 17.45 56.13 17.45C55.88 16 51.96 11.61 51.96 11.61C51.66 11.02 48 8.08 48 8.08C47.02 8.21 48.85 9.57 48.85 9.57C49.32 9.66 51.28 11.79 51.28 11.79C51.62 12.81 50.81 12.42 50.81 12.42C51.11 11.15 49.23 11.1 49.23 11.1C48.89 9.44 47.83 9.57 47.83 9.57C45.57 9.06 46.17 10.98 46.17 10.98C46.98 12.17 47.91 12.04 47.91 12.04L48 11.4C47.44 11.32 46.76 10.38 46.76 10.38C47.57 9.95 48.21 10.63 48.21 10.63C49.1 10.63 48.85 12 48.85 12L49.45 12.17C51.24 12 50.04 13.49 50.04 13.49C48.68 14.34 49.79 14.68 49.79 14.68L51.06 13.66C52.34 11.83 52.68 13.53 52.68 13.53C52.68 13.92 51.11 14.72 51.11 14.72C50.21 15.49 50.6 16.09 50.6 16.09L52 15.02C52.9 14.04 53.49 14.38 53.49 14.38C54.77 15.36 53.79 15.53 53.79 15.53C52.77 15.41 52 16.09 52 16.09C51.02 17.41 52.56 18.39 52.56 18.39C52.85 18.35 52.9 17.79 52.9 17.79C52.43 17.79 52.13 16.85 52.13 16.85C52.81 15.49 54.73 16.6 54.73 16.6C56.05 16.98 55.11 17.66 55.11 17.66C54.98 17.66 53.62 18.52 53.62 18.52C53.37 19.41 54.64 19.88 54.64 19.88C55.84 20.43 55.79 20.86 55.79 20.86C54.13 20.94 54.13 21.46 54.13 21.46C54.77 21.2 55.45 21.54 55.45 21.54C55.54 21.75 56.35 21.84 56.35 21.84L56.69 20.94L55.28 19.41C54.3 18.86 54.98 18.6 54.98 18.6C55.62 17.71 56.01 18.43 56.01 18.43C56.22 18.39 57.8 22.95 57.8 22.95C58.01 25.33 56.69 23.71 56.69 23.71C56.52 22.9 56.09 23.08 56.09 23.08C55.5 23.2 56.18 24.48 56.18 24.48C56.69 24.48 56.65 25.21 56.65 25.21C56.09 25.63 56.65 27.04 56.65 27.04L57.37 26.74C56.86 25.55 57.37 25.38 57.37 25.38C58.05 24.95 58.26 26.19 58.26 26.19C58.65 28.02 56.09 27.89 56.09 27.89C55.03 28.02 55.84 28.49 55.84 28.49C56.09 28.61 58.48 28.23 58.48 28.23C59.03 29.21 59.33 28.87 59.33 28.87C59.63 28.06 59.2 27.59 59.2 27.59Z" />
							</g>
							<g id="Group 8">
								<path id="Path 487" class="shp2" d="M23.86 16.75C23.84 16.86 23.82 16.93 23.82 17.08C23.92 17.17 24.01 17.25 24.11 17.33C24.13 17.38 24.14 17.42 24.15 17.46C24.21 17.47 24.26 17.49 24.32 17.5L24.32 17.54C24.39 17.6 24.42 17.64 24.53 17.67L24.53 17.58L24.74 17.58C24.76 17.71 24.8 17.73 24.82 17.88L24.9 17.88C24.92 17.9 24.93 17.93 24.95 17.96C24.99 17.97 25.03 17.99 25.07 18L25.07 18.08C25.1 18.1 25.13 18.11 25.15 18.13L25.15 18.21L25.2 18.21L25.2 18.33C25.24 18.35 25.28 18.36 25.32 18.38C25.33 18.4 25.35 18.43 25.36 18.46C25.46 18.56 25.58 18.67 25.74 18.71C25.75 18.63 25.77 18.54 25.78 18.46C25.89 18.49 25.91 18.53 25.99 18.58L25.99 18.63L26.2 18.63C26.22 18.64 26.25 18.74 26.32 18.75C26.36 18.72 26.32 18.71 26.4 18.71C26.41 18.61 26.42 18.6 26.45 18.54L26.4 18.54C26.32 18.42 26.37 18.52 26.24 18.46L26.24 18.42L26.11 18.42C26.04 18.32 25.97 18.22 25.9 18.13L25.9 18.04C25.88 18.03 25.85 18.01 25.82 18L25.82 17.79C25.93 17.74 25.97 17.71 26.15 17.71C26.2 17.78 26.18 17.77 26.28 17.79L26.28 17.88C26.41 17.95 26.44 18.04 26.61 18.08C26.63 18.14 26.64 18.19 26.65 18.25L26.7 18.25L26.7 18.63L26.74 18.63L26.74 18.71C26.77 18.72 26.79 18.74 26.82 18.75L26.82 18.83L26.86 18.83C26.88 18.89 26.89 18.95 26.9 19L26.95 19L26.95 19.13C27.03 19.24 27.11 19.35 27.2 19.46L27.28 19.46C27.29 19.49 27.31 19.52 27.32 19.54L27.41 19.54L27.41 19.58C27.45 19.61 27.49 19.64 27.53 19.67C27.64 19.82 27.52 19.89 27.78 19.92C28.01 19.66 28.1 20 28.24 19.96C28.25 19.93 28.27 19.9 28.28 19.88C28.31 19.86 28.34 19.85 28.36 19.83C28.38 19.88 28.39 19.92 28.41 19.96L28.45 19.96L28.45 20.04L28.49 20C28.54 19.96 28.57 19.89 28.61 19.83L28.66 19.83C28.67 19.75 28.68 19.67 28.7 19.58L28.74 19.58C28.77 19.54 28.79 19.5 28.82 19.46C28.7 19.39 28.66 19.31 28.66 19.13C28.76 19.03 28.7 18.97 28.86 18.92L28.86 18.88C28.93 18.89 29 18.9 29.07 18.92C29.11 19.04 29.16 19.17 29.2 19.29C29.31 19.38 29.42 19.46 29.53 19.54L29.53 19.83L29.57 19.83L29.57 19.92L29.61 19.92C29.63 19.96 29.64 20 29.66 20.04C29.73 20.06 29.8 20.07 29.87 20.09L29.87 20.13C29.94 20.16 30.21 20.25 30.24 20.29L30.24 20.38L30.28 20.38L30.28 20.5C30.15 20.58 30.12 20.7 30.03 20.84C30 20.85 29.98 20.86 29.95 20.88L29.95 21L29.91 21L29.91 21.29L29.87 21.29L29.87 21.38C29.82 21.41 29.78 21.43 29.74 21.46C29.73 21.52 29.71 21.57 29.7 21.63L29.66 21.63L29.66 21.67L29.7 21.67L29.7 21.84L29.74 21.84C29.75 22.02 29.77 22.2 29.78 22.38L29.74 22.38L29.74 22.71L29.7 22.71C29.68 22.89 29.67 23.07 29.66 23.25L29.7 23.25L29.7 23.3C29.8 23.27 29.95 23.14 30.12 23.21C30.13 23.24 30.14 23.27 30.16 23.3L30.24 23.3C30.25 23.32 30.27 23.35 30.28 23.38L30.37 23.38L30.37 23.42L30.45 23.42L30.45 23.46C30.63 23.5 30.81 23.55 30.99 23.59L30.99 23.63L31.12 23.63L31.12 23.67L31.24 23.67L31.24 23.71L31.78 23.71L31.78 23.75L31.95 23.75L31.95 23.8L32.12 23.8L32.12 23.84L32.28 23.84L32.28 23.88L32.37 23.88L32.37 23.92C32.45 23.93 32.53 23.95 32.62 23.96L32.62 24C32.73 24.04 33.01 24.04 33.12 24L33.12 23.96L33.28 23.96L33.28 23.92L33.45 23.92L33.45 23.88L33.83 23.88L34.12 23.88C34.25 23.92 34.6 24.09 34.83 24L34.83 23.96L34.91 23.96L34.91 23.92C35.01 23.87 35.32 23.79 35.49 23.84L35.49 23.88L35.74 23.88L35.74 23.92L36.2 23.92L36.2 23.96L36.29 23.96L36.29 24L36.41 24L36.41 24.05L36.49 24.05L36.49 24.09L36.66 24.09L36.66 24.13C36.8 24.14 36.94 24.16 37.08 24.17L37.08 24.13L37.33 24.13L37.33 24.09C37.48 24.05 37.77 24.14 37.83 24.13L37.83 24.09C37.9 24.07 37.97 24.06 38.04 24.05L38.04 24C38.09 23.99 38.15 23.98 38.2 23.96L38.2 23.92C38.32 23.88 38.58 23.88 38.7 23.92L38.7 23.96L38.95 23.96C39.27 24.06 39.83 24.19 39.91 24.5C40.02 24.53 40.05 24.57 40.12 24.63L40.12 24.67C40.19 24.69 40.26 24.7 40.33 24.71L40.33 24.75L40.41 24.75C40.43 24.78 40.44 24.81 40.46 24.84L40.54 24.84L40.54 24.88C40.65 25 40.59 25.07 40.79 25.13C40.81 25.26 40.86 25.32 40.87 25.46C40.78 25.5 40.69 25.51 40.54 25.51L40.54 25.46L40.37 25.46C40.13 25.38 40.01 25.32 39.7 25.38C39.72 25.55 39.73 25.71 39.75 25.88L39.7 25.88C39.67 25.97 39.59 26.39 39.62 26.51L39.66 26.51L39.66 26.76C39.7 26.88 39.77 26.97 39.79 27.13C39.72 27.18 39.73 27.16 39.7 27.26L39.58 27.26L39.58 27.21C39.48 27.13 39.54 27.1 39.37 27.05L39.37 27.09L39.33 27.09C39.25 27.23 39.38 27.44 39.29 27.55L39.29 27.59C39.22 27.63 38.77 27.59 38.66 27.63L38.66 27.76C38.51 27.74 38.54 27.7 38.41 27.67C38.43 27.78 38.44 27.9 38.45 28.01C38.41 28.02 38.37 28.03 38.33 28.05C38.28 28.1 38.33 28.07 38.25 28.09L38.25 28.17L38.2 28.17C38.19 28.24 38.24 28.25 38.25 28.26C38.29 28.44 38.23 28.67 38.2 28.8C38.13 28.84 38.14 28.86 38.04 28.88L38.04 28.84C37.95 28.76 37.96 28.71 37.95 28.55C37.95 28.5 38 28.38 38 28.38L37.91 28.38C37.85 28.45 37.7 28.46 37.62 28.51L37.62 28.47C37.54 28.41 37.55 28.42 37.54 28.3L37.45 28.3C37.47 28.45 37.48 28.6 37.49 28.76C37.42 28.8 37.37 28.85 37.33 28.92C37.29 28.91 37.24 28.9 37.2 28.88C37.17 28.74 37.12 28.78 37.08 28.63C36.99 28.61 37.04 28.64 36.99 28.59C36.89 28.62 36.92 28.61 36.87 28.67L36.83 28.67L36.83 28.84C36.79 28.95 36.74 29.06 36.7 29.17C36.51 29.12 36.31 29.06 36.12 29.01L36.12 29.05C35.79 29.13 35.85 29.56 35.62 29.72C35.47 29.74 35.31 29.77 35.16 29.8L35.16 29.88C35.03 30.03 35.19 30.42 35.12 30.63L35.08 30.63L35.08 30.72L35.04 30.72C34.95 30.97 35.15 31.28 35.2 31.43L35.2 31.63L35.24 31.63L35.24 31.8L35.28 31.8L35.28 31.93L35.33 31.93L35.33 32.05C35.37 32.08 35.41 32.11 35.45 32.13C35.48 32.22 35.51 32.3 35.54 32.38C35.56 32.4 35.59 32.41 35.62 32.43L35.62 32.51L35.66 32.51C35.72 32.93 35.77 33.34 35.83 33.76C35.92 33.81 35.92 33.85 36.04 33.89C36.01 33.76 35.98 33.64 35.95 33.51L35.91 33.51L35.91 33.43L35.87 33.43C35.78 33.18 35.92 32.88 35.95 32.72C36.02 32.69 36.05 32.68 36.16 32.68C36.19 32.74 36.24 32.8 36.29 32.84C36.3 33.07 36.31 33.29 36.33 33.51L36.41 33.51C36.44 33.59 36.47 33.68 36.49 33.76C36.54 33.79 36.58 33.82 36.62 33.84L36.62 33.97L36.66 33.97L36.66 34.09L36.7 34.09C36.72 34.14 36.73 34.18 36.74 34.22C36.8 34.21 36.86 34.19 36.91 34.18L36.91 34.14C36.96 34.13 37.14 34.21 37.29 34.22C37.33 34.13 37.41 34.06 37.49 34.01L37.49 33.84L37.58 33.84C37.66 33.71 37.76 33.67 37.79 33.47C37.65 33.38 37.73 33.35 37.66 33.22L37.62 33.22C37.61 33.16 37.59 33.11 37.58 33.05L37.54 33.05L37.54 32.93L37.49 32.93C37.51 32.73 37.52 32.54 37.54 32.34C37.57 32.33 37.62 32.26 37.62 32.26C37.77 32.19 37.96 32.29 38.08 32.22C38.18 32.11 38.27 32 38.37 31.88C38.33 31.68 38.31 31.02 38.45 30.88L38.45 30.84L38.62 30.84C38.66 30.89 38.62 30.85 38.66 30.88C38.68 31.05 38.73 31.06 38.75 31.22L38.83 31.22L38.83 31.18C38.87 31.16 38.91 31.15 38.95 31.13C39.05 31.01 39.15 30.88 39.25 30.76C39.29 30.79 39.25 30.75 39.29 30.8C39.36 30.84 39.41 30.89 39.45 30.97L39.5 30.97C39.51 30.93 39.52 30.88 39.54 30.84L39.58 30.84L39.58 30.76C39.62 30.71 39.66 30.73 39.75 30.72C39.77 30.77 39.82 30.78 39.83 30.8L39.83 30.88L39.87 30.88L39.87 31.01L39.91 31.01L39.91 31.13L39.95 31.13L39.95 31.3L40 31.3L40 31.47L40.04 31.47C40.02 31.63 40.01 31.8 40 31.97L40.04 31.97L40.04 32.22L40.08 32.22L40.08 32.51L40.12 32.51L40.12 32.8L40.16 32.8L40.16 33.09L40.2 33.09C40.21 33.15 40.18 33.08 40.16 33.14C40.18 33.33 40.19 33.52 40.2 33.72L40.16 33.72L40.16 33.97C40.2 34.09 40.25 34.22 40.29 34.34C40.32 34.36 40.34 34.37 40.37 34.39L40.37 34.51L40.41 34.51C40.46 34.64 40.41 34.8 40.5 34.89C40.54 34.93 40.5 34.9 40.58 34.93C40.59 35.07 40.61 35.21 40.62 35.34L40.66 35.34L40.66 35.55C40.69 35.57 40.72 35.58 40.75 35.6L40.75 35.68L40.79 35.68L40.79 35.97L40.83 35.97L40.83 36.18L40.87 36.18C40.86 36.35 40.84 36.51 40.83 36.68L40.87 36.68L40.87 36.76L40.91 36.76L40.91 36.93L40.96 36.93L40.96 37.05L41 37.05L41 37.22L41.04 37.22C41.05 37.47 41.07 37.72 41.08 37.97L41.12 37.97C41.2 38.24 41.16 38.65 41.16 38.97L41.16 39.43C41.24 39.68 41.21 40.11 41.21 40.43L41.21 41.35L41.25 41.35L41.25 41.47L41.29 41.47L41.29 41.6L41.33 41.6L41.33 41.68L41.37 41.68L41.37 41.77L41.41 41.77L41.41 41.85L41.46 41.85C41.5 41.97 41.41 42.22 41.37 42.27C41.34 42.41 41.3 42.43 41.12 42.43C41.07 42.36 40.95 42.32 40.91 42.22L40.91 42.02L40.96 42.02L40.96 41.97L40.91 41.97L40.91 41.89L40.87 41.89L40.87 41.77L40.83 41.77C40.75 41.7 40.52 41.72 40.37 41.72C40.34 41.49 40.29 41.25 40.04 41.22C39.95 41.29 39.87 41.36 39.79 41.43L39.79 41.52C39.76 41.53 39.73 41.54 39.7 41.56L39.7 41.6C39.6 41.7 39.55 41.62 39.5 41.81C39.34 41.96 39.53 42.22 39.45 42.52L39.41 42.52C39.37 42.67 39.53 43.17 39.58 43.27L39.62 43.27L39.62 43.35L39.66 43.35L39.66 43.48L39.7 43.48L39.7 43.56L39.75 43.56C39.77 43.73 39.8 43.89 39.83 44.06L39.87 44.06C39.89 44.14 39.9 44.23 39.91 44.31L39.95 44.31C39.97 44.36 39.98 44.42 40 44.48L40.04 44.48C40.08 44.66 40.12 44.84 40.16 45.02L40 45.02C39.95 44.96 39.92 44.95 39.83 44.93C39.77 44.78 39.72 44.63 39.66 44.48L39.62 44.48L39.62 44.35L39.58 44.35C39.57 44.3 39.55 44.24 39.54 44.18L39.5 44.18L39.5 44.06C39.47 44.05 39.44 44.03 39.41 44.02L39.41 43.93C39.37 43.91 39.33 43.88 39.29 43.85L39.29 43.77C39.26 43.75 39.23 43.74 39.2 43.73C39.16 43.54 39.12 43.36 39.08 43.18C39.02 43.14 38.97 43.1 38.91 43.06C38.87 43 38.83 42.95 38.79 42.89C38.76 42.88 38.73 42.86 38.7 42.85C38.68 42.77 38.65 42.68 38.62 42.6L38.58 42.6L38.58 42.52L38.54 42.52C38.55 42.32 38.56 42.13 38.58 41.93L38.54 41.93L38.54 41.85L38.41 41.77L38.41 41.68C38.38 41.67 38.36 41.65 38.33 41.64L38.33 41.14C38.29 40.83 38.25 40.53 38.2 40.22C38.12 40.15 38.04 40.08 37.95 40.01L37.95 39.93L37.91 39.93C37.86 39.81 37.94 39.58 37.95 39.51C37.94 39.19 37.93 38.87 37.91 38.56L37.87 38.56L37.87 38.43C37.84 38.42 37.81 38.4 37.79 38.39L37.79 38.31L37.75 38.31C37.73 38.25 37.72 38.19 37.7 38.14L37.66 38.14C37.63 37.78 37.61 37.42 37.58 37.05L37.54 37.05L37.54 36.97L37.49 36.97L37.49 36.89C37.47 36.87 37.44 36.86 37.41 36.85L37.41 36.76C37.37 36.73 37.33 36.71 37.29 36.68C37.27 36.65 37.26 36.62 37.24 36.6C37.2 36.58 37.16 36.57 37.12 36.55C37.11 36.46 37.09 36.36 37.08 36.26L37.04 36.26L37.04 36.18C37.01 36.16 36.98 36.15 36.95 36.14L36.95 36.05C36.91 36.03 36.87 36 36.83 35.97L36.83 35.89C36.69 35.76 36.55 35.64 36.41 35.51L36.41 35.43C36.33 35.32 36.25 35.36 36.2 35.18L36.12 35.18L36.12 35.43C36.07 35.46 36.11 35.42 36.08 35.47C35.94 35.5 35.8 35.53 35.66 35.55L35.66 35.51L35.54 35.51L35.54 35.47C35.47 35.43 35.4 35.39 35.33 35.34L35.33 35.39C35.25 35.45 35.21 35.59 35.24 35.64C35.33 35.78 35.47 35.8 35.49 36.01C35.4 36.08 35.47 36.1 35.33 36.14C35.15 36.3 34.76 35.96 34.58 35.93L34.58 36.01C34.53 36.03 34.49 36.04 34.45 36.05C34.44 36.08 34.42 36.11 34.41 36.14C34.34 36.15 34.27 36.16 34.2 36.18C34.12 36.07 34.03 35.96 33.95 35.85C33.9 35.83 33.84 35.82 33.78 35.8C33.77 35.78 33.76 35.75 33.74 35.72L33.66 35.72C33.59 35.64 33.52 35.55 33.45 35.47C33.42 35.46 33.39 35.44 33.37 35.43L33.37 35.34C33.34 35.33 33.31 35.32 33.28 35.3L33.28 35.14L33.24 35.14L33.24 34.97L33.2 34.97C33.14 34.8 33.23 34.78 33.03 34.72L33.03 34.68L32.83 34.68C32.8 34.75 32.79 34.81 32.78 34.93C32.64 34.94 32.58 34.98 32.45 35.01C32.44 35.05 32.42 35.09 32.41 35.14C32.32 35.15 32.24 35.16 32.16 35.18C32.13 35.25 32.12 35.28 32.12 35.39C32.19 35.43 32.2 35.48 32.24 35.55L32.2 35.55C32.14 35.67 32.08 35.7 32.07 35.89C32.14 35.97 32.21 36.05 32.28 36.14C32.32 36.16 32.37 36.19 32.41 36.22C32.47 36.3 32.39 36.28 32.49 36.35C32.44 36.48 32.45 36.65 32.49 36.8L32.53 36.8C32.55 36.87 32.49 36.88 32.49 36.89L32.49 37.3L32.45 37.3L32.45 37.43L32.41 37.43C32.38 37.51 32.35 37.6 32.32 37.68L32.28 37.68C32.27 37.74 32.26 37.79 32.24 37.85C32.16 37.92 32.07 37.99 31.99 38.05C31.96 38.25 31.94 38.44 31.91 38.64C31.81 38.66 31.78 38.69 31.7 38.72C31.68 38.62 31.65 38.59 31.62 38.51L31.53 38.51C31.46 38.64 31.36 38.71 31.32 38.89L31.2 38.89L31.2 38.85C31.13 38.78 31.16 38.77 31.12 38.68L31.07 38.68L31.07 38.56L31.03 38.56L31.03 38.6C30.92 38.73 31.09 38.86 31.03 39.06C30.87 39.62 30.78 39.57 30.16 39.56C30.18 39.43 30.21 39.31 30.24 39.18C30.09 39.18 30 39.18 29.91 39.14C30 38.95 30.07 38.9 30.07 38.6C30.03 38.56 30.07 38.6 30.03 38.56C29.91 38.58 29.82 38.6 29.7 38.64L29.7 38.68C29.61 38.67 29.53 38.65 29.45 38.64C29.43 38.58 29.39 38.54 29.41 38.43C29.41 38.43 29.46 38.41 29.45 38.35L29.41 38.35L29.41 38.22L29.36 38.22L29.36 37.89L29.32 37.89L29.32 37.93C29.13 38.01 28.99 38.16 28.95 38.39L29.07 38.39C29.16 38.53 29.23 38.52 29.24 38.76C29.28 38.87 29.32 38.99 29.36 39.1L29.32 39.1C29.26 39.19 29.22 39.18 29.07 39.18L29.07 39.14L28.95 39.14C28.91 39.19 28.95 39.14 28.91 39.18C28.89 39.26 28.88 39.35 28.86 39.43C28.71 39.43 28.64 39.41 28.53 39.39C28.49 39.27 28.39 38.92 28.32 38.85L28.32 38.93L28.28 38.93C28.26 38.96 28.25 39.07 28.24 39.1L28.28 39.1C28.31 39.19 28.32 39.2 28.36 39.26L28.41 39.26C28.46 39.35 28.45 39.5 28.45 39.64C28.4 39.66 28.38 39.71 28.36 39.72C28.26 39.79 28.03 39.8 27.86 39.81C27.84 39.76 27.79 39.74 27.78 39.72L27.78 39.64L27.74 39.64L27.74 39.51C27.72 39.47 27.56 39.45 27.61 39.31C27.66 39.28 27.7 39.25 27.74 39.22C27.82 39.1 27.86 39.01 27.86 38.81C27.79 38.77 27.8 38.75 27.7 38.72C27.68 38.65 27.67 38.58 27.66 38.51L27.7 38.51L27.7 38.14L27.66 38.14C27.64 38.07 27.63 38 27.61 37.93L27.53 37.93L27.53 38.26L27.49 38.26C27.47 38.35 27.46 38.43 27.45 38.51L27.49 38.51C27.55 38.62 27.56 38.59 27.57 38.76C27.49 38.75 27.41 38.74 27.32 38.72C27.31 38.78 27.29 38.83 27.28 38.89C27.32 39.17 27.48 39.55 27.07 39.6C27.05 39.54 27.03 39.51 26.99 39.47C27.03 39.37 27.14 39.12 27.07 38.93L27.03 38.93L27.03 38.85C26.99 38.82 26.95 38.79 26.9 38.76L26.9 38.18L26.86 38.18L26.86 38.01L26.82 38.01C26.76 38.12 26.65 38.21 26.61 38.35C26.64 38.58 26.67 38.82 26.7 39.06L26.74 39.06L26.74 39.14L26.78 39.14C26.77 39.29 26.75 39.44 26.74 39.6C26.65 39.57 26.57 39.54 26.49 39.51C26.47 39.39 26.46 39.26 26.45 39.14L26.49 39.14C26.5 39.06 26.52 38.97 26.53 38.89C26.44 38.84 26.38 38.77 26.28 38.72C26.28 39.07 26.14 39.3 26.03 39.56C25.95 39.53 25.99 39.56 25.95 39.51C25.79 39.48 25.79 39.39 25.7 39.31C25.71 39.07 25.72 38.83 25.74 38.6L25.78 38.6C25.77 38.46 25.75 38.32 25.74 38.18C25.75 38.03 25.77 37.87 25.78 37.72L25.74 37.72L25.74 37.64L25.7 37.64C25.67 37.51 25.64 37.39 25.61 37.26L25.57 37.26L25.57 37.18L25.53 37.18C25.51 37.1 25.5 37.01 25.49 36.93L25.45 36.93L25.45 36.85L25.4 36.85L25.4 36.72L25.36 36.72C25.32 36.59 25.39 36.37 25.4 36.3C25.45 36.13 25.35 35.99 25.32 35.89L25.32 35.51C25.27 35.37 25.18 35.28 25.15 35.09L25.2 35.09L25.2 35.01L25.24 35.01C25.33 34.9 25.4 34.84 25.4 34.64C25.32 34.56 25.37 34.54 25.32 34.47C25.24 34.4 25.15 34.33 25.07 34.26L25.07 34.18C24.96 33.99 24.91 33.94 24.9 33.64C24.95 33.59 24.92 33.64 24.95 33.55C25.03 33.52 25.11 33.5 25.2 33.47C25.19 33.25 25.17 33.23 25.2 33.05C25.25 33.02 25.25 32.99 25.28 32.97L25.36 32.97C25.38 32.94 25.39 32.91 25.4 32.89C25.54 32.82 25.51 32.95 25.61 32.8C25.48 32.73 25.47 32.68 25.24 32.68C25.18 32.77 25.09 32.79 25.03 32.89C24.87 32.83 24.38 32.72 24.32 32.59L24.32 32.47L24.53 32.47C24.55 32.4 24.56 32.4 24.57 32.3C24.44 32.22 24.47 32.13 24.53 32.01L24.53 31.93L24.57 31.93L24.57 31.84C24.6 31.83 24.63 31.81 24.65 31.8L24.65 31.68C24.68 31.66 24.71 31.65 24.74 31.63C24.79 31.57 24.8 31.51 24.82 31.43C24.77 31.4 24.7 31.3 24.7 31.3L24.49 31.3L24.49 31.26L24.4 31.26L24.4 31.22C24.32 31.2 24.24 31.19 24.15 31.18C24.03 31.1 23.85 30.65 23.82 30.47C23.92 30.4 23.94 30.29 24.03 30.22C23.99 30.05 23.89 30 23.86 29.8C23.91 29.75 23.88 29.8 23.9 29.72C24.11 29.67 24.32 29.63 24.53 29.59C24.57 29.49 24.53 29.3 24.57 29.17L24.61 29.17L24.61 29.09L24.65 29.09C24.71 28.96 24.66 28.94 24.65 28.8C24.51 28.72 24.45 28.65 24.44 28.42L24.49 28.42L24.49 28.38L24.74 28.38L24.74 28.34C24.78 28.29 24.75 28.34 24.78 28.26C24.74 28.12 24.7 27.98 24.65 27.84C24.57 27.77 24.49 27.7 24.4 27.63C24.21 27.62 24.01 27.6 23.82 27.59L23.82 27.63L23.53 27.63L23.53 27.59L23.4 27.59C23.28 27.48 23.15 27.37 23.03 27.26L23.03 27.17C22.99 27.15 22.94 27.12 22.9 27.09L22.9 27.05L22.78 27.05L22.78 27.01L22.69 27.01L22.69 26.96L22.57 26.96L22.57 26.92C22.49 26.9 22.4 26.87 22.32 26.84L22.32 26.8L22.24 26.8C22.18 26.73 22.12 26.66 22.07 26.59C22.04 26.58 22.01 26.56 21.98 26.55L21.98 26.46L21.94 26.46L21.94 26.38L21.9 26.38L21.9 26.26C21.87 26.24 21.85 26.23 21.82 26.21L21.82 26.13L21.78 26.13C21.74 26.05 21.73 25.67 21.78 25.59L21.82 25.59C21.92 25.23 22.35 25.45 22.36 24.96C22.14 24.82 22.36 24.52 22.57 24.5C22.61 24.64 22.65 24.78 22.69 24.92L22.78 24.92C22.85 24.75 22.9 24.7 23.03 24.59C23.04 24.56 23.06 24.53 23.07 24.5L23.15 24.5L23.15 24.46C23.35 24.38 23.41 24.54 23.49 24.3C23.57 24.22 23.48 24.27 23.53 24.17L23.57 24.17L23.57 24.09L23.61 24.09C23.68 23.87 23.48 23.66 23.44 23.5C23.66 23.39 23.99 23.42 24.32 23.42L24.32 23.46L24.4 23.46C24.42 23.49 24.43 23.52 24.44 23.55L24.53 23.55L24.53 23.59L25.07 23.59C25.32 23.66 25.46 23.68 25.74 23.63L25.74 23.34C25.82 23.32 25.9 23.31 25.99 23.3L25.99 23.17L25.95 23.17L25.95 23.13C25.87 23.07 25.74 23.13 25.65 23.09C25.64 23.06 25.63 23.03 25.61 23L25.53 23C25.49 22.95 25.45 22.89 25.4 22.84C25.36 22.8 25.23 22.8 25.2 22.75L25.2 22.67L25.15 22.67L25.15 22.55C25.23 22.51 25.22 22.49 25.32 22.46C25.31 22.31 25.26 22.26 25.24 22.13C25.19 22.1 25.15 22.02 25.07 22.04L25.07 22.09C25.01 22.1 24.96 22.11 24.9 22.13L24.9 22.17C24.87 22.19 24.69 22.31 24.65 22.29L24.65 22.25C24.61 22.23 24.57 22.2 24.53 22.17L24.53 22.13L24.44 22.13C24.43 22.1 24.42 22.07 24.4 22.04L24.32 22.04C24.31 22.02 24.29 21.99 24.28 21.96L24.11 21.96L24.11 21.92C24.03 21.89 23.94 21.86 23.86 21.84L23.86 21.79L23.78 21.79C23.72 21.72 23.67 21.66 23.61 21.59C23.57 21.56 23.53 21.53 23.49 21.5L23.49 21.42L23.44 21.42C23.43 21.35 23.42 21.28 23.4 21.21L23.36 21.21C23.29 21.08 23.27 21.01 23.11 20.96C23.09 20.83 23.07 20.79 22.94 20.75C22.84 20.67 22.68 20.81 22.49 20.75L22.49 20.71C22.41 20.68 22.38 20.69 22.32 20.67C22.28 20.58 22.28 20.44 22.28 20.29C22.18 20.19 22.25 19.87 22.28 19.75C22.39 19.73 22.47 19.67 22.53 19.58C22.45 19.53 22.46 19.54 22.44 19.42C22.52 19.37 22.62 19.29 22.65 19.21L22.65 19L22.69 19L22.69 18.92C22.79 18.78 22.89 18.9 23.03 18.83C23.11 18.74 23.19 18.64 23.28 18.54L23.28 18.42L23.32 18.42L23.32 18.25C23.39 18.12 23.74 18.16 23.94 18.17L23.94 18.13L24.11 18.13L24.11 17.96L23.94 17.96L23.94 17.63C23.79 17.62 23.59 17.52 23.53 17.54L23.53 17.58C23.46 17.62 23.43 17.62 23.32 17.63C23.32 17.5 23.32 17.37 23.36 17.29C23.39 17.28 23.42 17.26 23.44 17.25L23.44 17L23.49 17C23.58 16.82 23.59 16.75 23.86 16.75Z" />
							</g>
						</g>
						<g id="Group 10">
							<path id="Path 488" fill-rule="evenodd" class="shp1" d="M75.71 43.53C76.72 43.36 78.04 43.27 79.43 43.27C81.75 43.27 83.25 43.69 84.43 44.57C85.69 45.52 86.49 47.02 86.49 49.17C86.49 51.5 85.64 53.11 84.46 54.11C83.18 55.18 81.23 55.68 78.84 55.68C77.41 55.68 76.39 55.59 75.71 55.5L75.71 43.53ZM78.48 53.48C78.71 53.53 79.09 53.53 79.43 53.53C81.93 53.55 83.56 52.17 83.56 49.26C83.58 46.73 82.09 45.39 79.72 45.39C79.11 45.39 78.71 45.44 78.48 45.5L78.48 53.48Z" />
							<path id="Path 489" class="shp1" d="M90.59 43.36L90.59 55.56L87.83 55.56L87.83 43.36L90.59 43.36Z" />
							<path id="Path 490" class="shp1" d="M95.39 55.56L91.48 43.36L94.5 43.36L95.98 48.52C96.4 49.97 96.78 51.36 97.07 52.88L97.12 52.88C97.43 51.41 97.81 49.97 98.23 48.57L99.78 43.36L102.71 43.36L98.61 55.56L95.39 55.56Z" />
							<path id="Path 491" class="shp1" d="M106.31 43.36L106.31 55.56L103.55 55.56L103.55 43.36L106.31 43.36Z" />
							<path id="Path 492" class="shp1" d="M108.32 52.72C109.06 53.1 110.2 53.48 111.38 53.48C112.64 53.48 113.31 52.95 113.31 52.16C113.31 51.4 112.74 50.96 111.27 50.44C109.24 49.73 107.92 48.61 107.92 46.84C107.92 44.76 109.66 43.16 112.54 43.16C113.91 43.16 114.92 43.45 115.65 43.78L115.03 46C114.54 45.77 113.68 45.43 112.48 45.43C111.29 45.43 110.71 45.97 110.71 46.6C110.71 47.38 111.4 47.72 112.97 48.32C115.12 49.12 116.14 50.24 116.14 51.96C116.14 54 114.56 55.74 111.22 55.74C109.82 55.74 108.45 55.38 107.76 55L108.32 52.72Z" />
							<path id="Path 493" class="shp1" d="M120.3 43.36L120.3 55.56L117.53 55.56L117.53 43.36L120.3 43.36Z" />
							<path id="Path 494" fill-rule="evenodd" class="shp1" d="M133.37 49.33C133.37 53.33 130.95 55.76 127.39 55.76C123.77 55.76 121.65 53.02 121.65 49.55C121.65 45.9 123.98 43.16 127.59 43.16C131.33 43.16 133.37 45.97 133.37 49.33ZM124.56 49.5C124.56 51.88 125.69 53.57 127.53 53.57C129.39 53.57 130.46 51.79 130.46 49.42C130.46 47.23 129.41 45.35 127.51 45.35C125.65 45.35 124.56 47.13 124.56 49.5Z" />
							<path id="Path 495" class="shp1" d="M134.71 55.56L134.71 43.36L137.93 43.36L140.46 47.83C141.19 49.12 141.91 50.64 142.45 52.01L142.51 52.01C142.33 50.4 142.27 48.75 142.27 46.93L142.27 43.36L144.81 43.36L144.81 55.56L141.91 55.56L139.31 50.85C138.58 49.55 137.79 47.98 137.19 46.55L137.14 46.56C137.21 48.17 137.24 49.89 137.24 51.88L137.24 55.56L134.71 55.56Z" />
						</g>
						<g id="Group 11">
							<path id="Rectangle 1491" class="shp1" d="M75.71 1.85L83.71 1.85L83.71 37.88L75.71 37.88L75.71 1.85Z" />
							<path id="Path 496" class="shp1" d="M144.81 1.85L117.21 1.85L117.21 8.73L126.9 8.73L126.9 37.88L134.91 37.88L134.91 8.73L144.81 8.73L144.81 1.85Z" />
							<path id="Path 497" class="shp1" d="M86.96 20.54C86.96 28.52 91.62 37.88 106.13 37.88C110.46 37.88 113.8 36.85 113.8 36.85L113.8 30.18C113.8 30.18 111.22 31.29 107.39 31.29C100.38 31.29 95.52 27.69 95.52 19.86C95.52 12.04 100.75 8.3 106.87 8.3C111.04 8.3 113.8 9.63 113.8 9.63L113.8 2.58C113.8 2.58 111.62 1.85 106.63 1.85C97.35 1.85 86.96 7.11 86.96 20.54Z" />
						</g>
					</g>
					<g id="Group 14">
						<g id="Group 13">
							<path id="Path 498" class="shp0" d="M4.12 71.23L8.54 71.23L8.54 72.2L5.24 72.2L5.24 73.88L8.13 73.88L8.13 74.79L5.24 74.79L5.24 77.63L4.12 77.63L4.12 71.23Z" />
							<path id="Path 499" class="shp0" d="M14.65 71.23L15.77 71.23L15.77 74.96C15.77 75.17 15.78 75.39 15.8 75.61C15.82 75.83 15.88 76.03 15.98 76.21C16.08 76.39 16.23 76.53 16.43 76.64C16.63 76.76 16.91 76.81 17.27 76.81C17.64 76.81 17.92 76.76 18.12 76.64C18.32 76.53 18.47 76.39 18.57 76.21C18.67 76.03 18.72 75.83 18.75 75.61C18.77 75.39 18.78 75.17 18.78 74.96L18.78 71.23L19.9 71.23L19.9 75.33C19.9 75.74 19.83 76.1 19.71 76.4C19.58 76.71 19.41 76.96 19.18 77.17C18.95 77.37 18.67 77.53 18.35 77.63C18.03 77.73 17.67 77.78 17.27 77.78C16.88 77.78 16.52 77.73 16.2 77.63C15.87 77.53 15.6 77.37 15.37 77.17C15.14 76.96 14.96 76.71 14.84 76.4C14.71 76.1 14.65 75.74 14.65 75.33L14.65 71.23Z" />
							<path id="Path 500" class="shp0" d="M25.86 71.23L31.04 71.23L31.04 72.2L29.01 72.2L29.01 77.63L27.89 77.63L27.89 72.2L25.86 72.2L25.86 71.23Z" />
							<path id="Path 501" class="shp0" d="M37 71.23L38.12 71.23L38.12 74.96C38.12 75.17 38.13 75.39 38.15 75.61C38.17 75.83 38.23 76.03 38.33 76.21C38.43 76.39 38.58 76.53 38.78 76.64C38.98 76.76 39.26 76.81 39.62 76.81C39.99 76.81 40.27 76.76 40.47 76.64C40.67 76.53 40.82 76.39 40.92 76.21C41.02 76.03 41.08 75.83 41.1 75.61C41.12 75.39 41.13 75.17 41.13 74.96L41.13 71.23L42.25 71.23L42.25 75.33C42.25 75.74 42.19 76.1 42.06 76.4C41.94 76.71 41.76 76.96 41.53 77.17C41.3 77.37 41.02 77.53 40.7 77.63C40.38 77.73 40.02 77.78 39.62 77.78C39.23 77.78 38.87 77.73 38.55 77.63C38.23 77.53 37.95 77.37 37.72 77.17C37.49 76.96 37.31 76.71 37.19 76.4C37.06 76.1 37 75.74 37 75.33L37 71.23Z" />
							<path id="Path 502" fill-rule="evenodd" class="shp0" d="M48.83 71.23L51.88 71.23C52.58 71.23 53.11 71.38 53.47 71.69C53.82 71.99 53.99 72.42 53.99 72.96C53.99 73.27 53.95 73.52 53.86 73.72C53.77 73.92 53.67 74.08 53.55 74.2C53.43 74.32 53.31 74.41 53.19 74.47C53.08 74.52 52.99 74.56 52.94 74.57L52.94 74.59C53.03 74.6 53.14 74.63 53.25 74.68C53.36 74.73 53.46 74.81 53.56 74.91C53.65 75.01 53.73 75.15 53.79 75.32C53.86 75.48 53.89 75.69 53.89 75.94C53.89 76.32 53.92 76.66 53.97 76.97C54.03 77.28 54.12 77.5 54.24 77.63L53.04 77.63C52.95 77.49 52.9 77.34 52.89 77.17C52.87 77 52.87 76.84 52.87 76.69C52.87 76.4 52.85 76.14 52.81 75.93C52.78 75.72 52.71 75.54 52.61 75.4C52.52 75.26 52.39 75.16 52.22 75.09C52.06 75.03 51.85 75 51.59 75L49.95 75L49.95 77.63L48.83 77.63L48.83 71.23ZM49.95 74.14L51.78 74.14C52.14 74.14 52.41 74.06 52.6 73.89C52.78 73.72 52.87 73.46 52.87 73.12C52.87 72.92 52.84 72.75 52.79 72.63C52.73 72.5 52.64 72.4 52.54 72.33C52.43 72.25 52.31 72.21 52.18 72.18C52.05 72.16 51.91 72.15 51.76 72.15L49.95 72.15L49.95 74.14Z" />
							<path id="Path 503" class="shp0" d="M60.42 71.23L65.02 71.23L65.02 72.2L61.54 72.2L61.54 73.88L64.76 73.88L64.76 74.79L61.54 74.79L61.54 76.66L65.08 76.66L65.08 77.63L60.42 77.63L60.42 71.23Z" />
							<path id="Path 504" class="shp0" d="M79.12 71.23L80.24 71.23L80.24 77.63L79.12 77.63L79.12 71.23Z" />
							<path id="Path 505" class="shp0" d="M87.63 75.5C87.63 75.74 87.68 75.95 87.76 76.12C87.84 76.3 87.96 76.44 88.11 76.55C88.26 76.66 88.43 76.74 88.62 76.79C88.82 76.84 89.03 76.87 89.26 76.87C89.5 76.87 89.71 76.84 89.88 76.78C90.06 76.73 90.2 76.65 90.3 76.56C90.41 76.47 90.49 76.37 90.54 76.25C90.58 76.14 90.61 76.02 90.61 75.9C90.61 75.65 90.55 75.47 90.44 75.36C90.33 75.24 90.21 75.16 90.08 75.11C89.85 75.03 89.59 74.95 89.29 74.87C88.99 74.8 88.61 74.7 88.17 74.58C87.9 74.51 87.67 74.42 87.49 74.3C87.3 74.18 87.16 74.05 87.05 73.91C86.95 73.77 86.87 73.62 86.82 73.45C86.78 73.29 86.76 73.13 86.76 72.96C86.76 72.64 86.82 72.36 86.96 72.12C87.09 71.89 87.27 71.69 87.49 71.54C87.71 71.38 87.96 71.27 88.24 71.19C88.52 71.12 88.81 71.08 89.09 71.08C89.43 71.08 89.74 71.12 90.04 71.21C90.34 71.3 90.6 71.43 90.82 71.6C91.04 71.77 91.22 71.99 91.35 72.24C91.48 72.49 91.55 72.79 91.55 73.12L90.43 73.12C90.4 72.71 90.26 72.42 90.01 72.25C89.76 72.08 89.44 71.99 89.05 71.99C88.92 71.99 88.78 72.01 88.65 72.03C88.51 72.06 88.38 72.11 88.27 72.17C88.16 72.23 88.06 72.32 87.99 72.42C87.91 72.53 87.88 72.67 87.88 72.83C87.88 73.05 87.95 73.23 88.09 73.36C88.23 73.49 88.41 73.59 88.64 73.65C88.66 73.66 88.76 73.68 88.92 73.73C89.08 73.77 89.27 73.82 89.47 73.88C89.67 73.93 89.87 73.98 90.07 74.03C90.26 74.08 90.4 74.12 90.48 74.14C90.69 74.21 90.87 74.3 91.03 74.41C91.19 74.53 91.32 74.66 91.42 74.8C91.52 74.95 91.6 75.11 91.65 75.27C91.7 75.44 91.73 75.61 91.73 75.77C91.73 76.13 91.65 76.44 91.51 76.69C91.36 76.95 91.17 77.15 90.93 77.32C90.69 77.48 90.42 77.59 90.12 77.67C89.81 77.74 89.5 77.78 89.18 77.78C88.82 77.78 88.48 77.74 88.15 77.65C87.83 77.56 87.55 77.42 87.31 77.23C87.07 77.05 86.88 76.81 86.74 76.52C86.6 76.23 86.52 75.89 86.51 75.5L87.63 75.5Z" />
							<path id="Path 506" class="shp0" d="M105.74 71.23L106.86 71.23L106.86 73.78L109.77 73.78L109.77 71.23L110.89 71.23L110.89 77.63L109.77 77.63L109.77 74.74L106.86 74.74L106.86 77.63L105.74 77.63L105.74 71.23Z" />
							<path id="Path 507" class="shp0" d="M117.52 71.23L122.12 71.23L122.12 72.2L118.64 72.2L118.64 73.88L121.87 73.88L121.87 74.79L118.64 74.79L118.64 76.66L122.19 76.66L122.19 77.63L117.52 77.63L117.52 71.23Z" />
							<path id="Path 508" fill-rule="evenodd" class="shp0" d="M128.45 71.23L131.5 71.23C132.21 71.23 132.74 71.38 133.09 71.69C133.44 71.99 133.62 72.42 133.62 72.96C133.62 73.27 133.57 73.52 133.48 73.72C133.39 73.92 133.29 74.08 133.17 74.2C133.05 74.32 132.93 74.41 132.82 74.47C132.7 74.52 132.62 74.56 132.56 74.57L132.56 74.59C132.66 74.6 132.76 74.63 132.87 74.68C132.98 74.73 133.08 74.81 133.18 74.91C133.28 75.01 133.35 75.15 133.42 75.32C133.48 75.48 133.51 75.69 133.51 75.94C133.51 76.32 133.54 76.66 133.6 76.97C133.65 77.28 133.74 77.5 133.86 77.63L132.66 77.63C132.58 77.49 132.53 77.34 132.51 77.17C132.5 77 132.49 76.84 132.49 76.69C132.49 76.4 132.47 76.14 132.44 75.93C132.4 75.72 132.33 75.54 132.24 75.4C132.14 75.26 132.01 75.16 131.85 75.09C131.68 75.03 131.47 75 131.22 75L129.57 75L129.57 77.63L128.45 77.63L128.45 71.23ZM129.57 74.14L131.41 74.14C131.76 74.14 132.04 74.06 132.22 73.89C132.41 73.72 132.5 73.46 132.5 73.12C132.5 72.92 132.47 72.75 132.41 72.63C132.35 72.5 132.27 72.4 132.16 72.33C132.06 72.25 131.94 72.21 131.8 72.18C131.67 72.16 131.53 72.15 131.39 72.15L129.57 72.15L129.57 74.14Z" />
							<path id="Path 509" class="shp0" d="M140.04 71.23L144.65 71.23L144.65 72.2L141.16 72.2L141.16 73.88L144.39 73.88L144.39 74.79L141.16 74.79L141.16 76.66L144.71 76.66L144.71 77.63L140.04 77.63L140.04 71.23Z" />
						</g>
					</g>
				</g>
			</g>
		</g>
	</g>
</svg>