<svg width="269" height="60" viewBox="0 0 269 60" fill="none" xmlns="http://www.w3.org/2000/svg">
<path d="M4.34143 0.901772C3.2226 1.46014 1.97468 2.57687 1.3292 3.56474L0.167346 5.32573L0.0382505 22.0766C-0.0908449 40.8033 -0.0478131 41.3187 2.74925 43.7669C5.15904 45.8715 6.92334 46.0433 26.8471 45.8715C42.8549 45.7427 45.0926 45.6568 46.2544 45.0125C47.8896 44.1105 50.2133 41.5335 50.5146 40.2449C50.6437 39.7295 50.6867 31.5688 50.6437 22.0766L50.5146 4.85327L49.2666 3.26408C46.8138 -0.00019664 46.8999 -0.000199261 25.341 -0.000199261C6.62212 -0.000199261 6.14877 -0.000199261 4.34143 0.901772ZM45.3508 5.28278C46.2114 6.01295 46.5556 6.78607 46.7278 8.3323C46.9429 10.2221 46.8999 10.4369 46.2544 10.1792C45.8241 10.0074 36.6153 9.87854 25.7282 9.87854C6.53606 9.87854 5.93361 9.83559 5.116 9.01952C3.95415 7.85984 4.04021 6.61426 5.33116 5.36868L6.36393 4.29491H25.2979H44.2319L45.3508 5.28278ZM45.9532 14.8179C46.2975 15.1186 46.6417 16.3641 46.7708 17.5668L46.986 19.7573H41.3918C36.3141 19.7573 35.6686 19.8432 34.3776 20.7452C29.515 23.9665 30.5478 31.1823 36.0559 33.0292C36.8735 33.2869 39.6275 33.5016 42.1664 33.5016H46.8569V35.6492C46.8569 38.5269 45.9962 40.5456 44.4041 41.1898C43.5004 41.5335 38.3796 41.6623 24.7385 41.5764L6.3209 41.4476L5.28813 40.2449L4.25537 39.0423V26.5006V13.9589L24.7815 14.0877C41.564 14.1736 45.4798 14.3454 45.9532 14.8179ZM46.8569 26.4147V29.2495L41.8652 29.1206C36.9595 28.9918 36.8305 28.9488 35.9698 27.8321C35.2383 26.8442 35.1522 26.5006 35.5825 25.5557C36.3141 24.0094 37.4329 23.6658 42.4676 23.6658L46.8569 23.6229V26.4147Z" fill="#155EED"/>
<path d="M22.2426 24.3534C21.1238 25.599 20.9517 26.9305 21.6402 28.262C22.802 30.4954 24.7815 30.6672 26.7179 28.7774C27.7507 27.7036 27.9658 27.2312 27.7077 26.2862C27.2773 24.4393 26.2446 23.6233 24.4803 23.6233C23.4905 23.6233 22.6299 23.9239 22.2426 24.3534Z" fill="#155EED"/>
<path d="M82.7444 0.429519C82.228 0.644274 81.6255 1.07378 81.4534 1.37444C81.2383 1.6751 80.9801 9.27743 80.851 18.2542C80.6358 33.5877 80.5928 34.6615 79.7752 36.0359C78.4842 38.2694 76.9781 39.1284 74.138 39.3861C72.3307 39.515 71.0397 39.3861 69.6627 38.8707C68.5869 38.4841 67.2529 38.0546 66.6505 37.9258C65.1444 37.6251 63.9825 38.9995 64.1546 40.8894C64.2837 42.135 64.5849 42.4356 66.8656 43.5953C69.0172 44.6691 70.093 44.9268 73.1052 45.0127C77.9678 45.2274 80.937 44.1537 83.3898 41.4048C86.5742 37.7969 86.6172 37.4963 86.7894 18.8555C86.9184 3.39314 86.8754 2.23346 86.1439 1.41739C85.1972 0.300666 83.9493 -0.0429419 82.7444 0.429519Z" fill="#155EED"/>
<path d="M178.32 1.50338L177.244 2.53421V22.2917C177.244 36.4655 177.373 42.3498 177.761 43.1659C178.535 44.8839 180.988 45.2705 182.537 43.939C183.183 43.3377 183.269 42.3498 183.269 36.079V28.8632L191.359 28.6484C197.082 28.5196 200.008 28.2619 201.557 27.7894C206.248 26.2861 209.905 22.893 210.938 19.0274C211.368 17.3523 211.454 17.2664 211.971 18.0825C212.702 19.0704 213.821 19.1133 217.135 18.2543C218.512 17.8677 221.137 17.5671 223.03 17.5671C228.28 17.5671 230.561 19.1992 231.249 23.4514L231.507 25.2553L224.923 25.4701C217.049 25.7278 215.026 26.2861 212.057 29.1638C209.088 32.0416 208.528 35.5635 210.293 39.9875C210.895 41.5337 213.907 43.9819 215.93 44.5833C220.19 45.8718 225.913 44.841 229.7 42.0921L231.464 40.8036V42.0062C231.464 44.0249 233.702 45.4423 235.509 44.5833C237.403 43.7672 237.575 42.4787 237.403 31.3114C237.274 21.6904 237.187 20.6595 236.37 18.8556C234.046 13.8733 228.839 11.2103 222.385 11.7687C218.727 12.0693 213.606 13.4438 212.487 14.4316C211.842 14.99 211.756 14.8182 211.54 12.7995C210.981 8.11784 208.141 4.33815 203.709 2.31945C200.309 0.730263 197.641 0.429608 188.131 0.429608C179.396 0.429608 179.353 0.429605 178.32 1.50338ZM201.342 7.73128C204.655 9.62113 206.205 13.1002 205.258 16.6651C204.655 18.8985 203.364 20.4448 201.213 21.6045C199.578 22.4635 198.717 22.5494 191.359 22.6782L183.269 22.85V14.6034V6.35685L191.359 6.52865C199.018 6.6575 199.492 6.70046 201.342 7.73128ZM231.464 32.557C231.464 34.9622 231.378 35.2199 229.958 36.4655C226.903 39.1285 223.503 40.2452 219.932 39.6868C217.092 39.2573 215.542 37.6252 215.542 35.0911C215.542 33.4589 215.758 32.9865 216.833 32.0416C217.651 31.3973 218.899 30.8819 220.19 30.7101C221.309 30.5812 222.514 30.4094 222.858 30.3235C223.202 30.2806 225.311 30.1947 227.505 30.1088L231.464 30.0229V32.557Z" fill="#155EED"/>
<path d="M102.971 12.0261C98.3234 12.971 93.7621 16.8366 91.9977 21.3894C90.5777 25.1262 90.4056 30.7527 91.6105 34.3606C93.9772 41.3187 99.3132 45.0984 106.844 45.0984C114.503 45.0984 120.356 40.9751 122.378 34.2318C123.368 31.0104 123.282 25.1691 122.206 22.1625C119.452 14.3454 111.749 10.308 102.971 12.0261ZM109.899 17.6527C112.481 18.2969 114.934 20.5304 116.139 23.2793C116.956 25.1691 117.085 26.0711 116.913 29.2495C116.698 34.1029 115.364 36.5082 111.878 38.3121C106.026 41.3616 99.2701 38.6557 97.4198 32.5567C95.6124 26.4147 97.721 20.4445 102.541 18.211C104.95 17.0943 107.016 16.9225 109.899 17.6527Z" fill="#155EED"/>
<path d="M132.06 12.2409C127.972 13.4005 125.476 15.9347 124.659 19.8432C124.013 22.9357 124.615 25.2121 126.767 27.3167C128.617 29.1636 130.855 30.1514 136.191 31.5259C142.517 33.1151 143.937 34.2747 142.818 36.9377C141.656 39.6866 135.029 40.3308 129.134 38.2262C126.595 37.3243 126.38 37.3243 125.347 38.0115C124.443 38.5699 124.271 38.9994 124.4 40.2879C124.529 41.6194 124.788 42.0059 126.208 42.7791C129.865 44.8407 137.611 45.7427 141.613 44.6689C144.066 43.9817 147.164 41.6623 148.154 39.7295C149.359 37.3672 149.316 33.8023 148.025 31.4829C146.39 28.6482 144.023 27.4026 136.019 25.298C131.802 24.2242 130.339 23.1934 130.339 21.4324C130.339 19.7573 131.888 18.254 134.255 17.6097C136.363 17.0084 140.882 17.2661 143.636 18.0822C146.777 19.0271 149.015 16.8796 147.422 14.4314C146.002 12.2838 136.707 10.9523 132.06 12.2409Z" fill="#155EED"/>
<path d="M158.179 12.0264C153.876 13.1431 150.993 15.7202 150.132 19.3281C148.669 25.3412 152.069 29.1638 160.89 31.3543C167.259 32.9006 168.636 33.6737 168.636 35.6494C168.636 39.4721 161.837 40.6747 154.522 38.1836C151.983 37.3245 151.767 37.3245 150.735 38.0117C149.831 38.5701 149.659 38.9996 149.788 40.2882C149.917 41.6196 150.175 42.0062 151.595 42.7793C155.21 44.798 162.999 45.7859 166.915 44.6692C173.972 42.7364 176.812 35.2199 172.423 30.2376C170.615 28.2189 168.765 27.3169 162.956 25.7707C157.362 24.2674 155.985 23.4514 155.812 21.5615C155.64 19.8005 157.103 18.2972 159.642 17.61C161.751 17.0087 166.269 17.2664 169.023 18.0825C172.165 19.0274 174.402 16.8798 172.81 14.4316C171.562 12.5418 162.267 10.9956 158.179 12.0264Z" fill="#155EED"/>
<path d="M238.822 13.143C238.305 13.7873 237.918 14.5174 237.918 14.8181C237.918 15.0758 240.5 21.6044 243.684 29.2496C246.826 36.9379 249.537 43.6382 249.709 44.1537C249.924 44.7979 249.364 46.8596 247.772 50.9399L245.535 56.7383L246.395 57.898C247.6 59.5301 249.58 59.659 250.741 58.2416C251.774 56.9101 268.901 15.8919 268.901 14.7322C268.901 13.6155 267.18 12.0263 265.975 12.0263C265.458 12.0263 264.641 12.241 264.21 12.4987C263.737 12.7994 261.456 17.8676 258.53 24.9545C255.819 31.526 253.539 36.9379 253.409 36.9379C253.28 36.9379 251.086 31.6549 248.504 25.2122C245.922 18.8125 243.426 13.186 242.996 12.7565C241.705 11.6397 239.854 11.8115 238.822 13.143Z" fill="#155EED"/>
</svg>
